0
SECTION
2
HEADER
9
$INSUNITS
70
4
9
$ACADVER
1
AC1014
9
$HANDSEED
5
FFFF
0
ENDSEC
0
SECTION
2
TABLES
0
TABLE
2
VPORT
5
8
100
AcDbSymbolTable
0
ENDTAB
0
TABLE
2
LTYPE
5
5
100
AcDbSymbolTable
0
LTYPE
5
14
100
AcDbSymbolTableRecord
100
AcDbLinetypeTableRecord
2
BYBLOCK
70
0
0
LTYPE
5
15
100
AcDbSymbolTableRecord
100
AcDbLinetypeTableRecord
2
BYLAYER
70
0
0
ENDTAB
0
TABLE
2
LAYER
5
2
100
AcDbSymbolTable
70
2
0
LAYER
5
50
100
AcDbSymbolTableRecord
100
AcDbLayerTableRecord
2
0
70
0
6
CONTINUOUS
0
ENDTAB
0
TABLE
2
STYLE
5
3
100
AcDbSymbolTable
70
1
0
STYLE
5
11
100
AcDbSymbolTableRecord
100
AcDbTextStyleTableRecord
2
STANDARD
70
0
0
ENDTAB
0
TABLE
2
VIEW
5
6
100
AcDbSymbolTable
70
0
0
ENDTAB
0
TABLE
2
UCS
5
7
100
AcDbSymbolTable
70
0
0
ENDTAB
0
TABLE
2
APPID
5
9
100
AcDbSymbolTable
70
2
0
APPID
5
12
100
AcDbSymbolTableRecord
100
AcDbRegAppTableRecord
2
ACAD
70
0
0
ENDTAB
0
TABLE
2
DIMSTYLE
5
A
100
AcDbSymbolTable
70
1
0
ENDTAB
0
TABLE
2
BLOCK_RECORD
5
1
100
AcDbSymbolTable
70
1
0
BLOCK_RECORD
5
1F
100
AcDbSymbolTableRecord
100
AcDbBlockTableRecord
2
*MODEL_SPACE
0
BLOCK_RECORD
5
1B
100
AcDbSymbolTableRecord
100
AcDbBlockTableRecord
2
*PAPER_SPACE
0
ENDTAB
0
ENDSEC
0
SECTION
2
BLOCKS
0
BLOCK
5
20
100
AcDbEntity
100
AcDbBlockBegin
2
*MODEL_SPACE
0
ENDBLK
5
21
100
AcDbEntity
100
AcDbBlockEnd
0
BLOCK
5
1C
100
AcDbEntity
100
AcDbBlockBegin
2
*PAPER_SPACE
0
ENDBLK
5
1D
100
AcDbEntity
100
AcDbBlockEnd
0
ENDSEC
0
SECTION
2
ENTITIES
0
LWPOLYLINE
5
100
100
AcDbEntity
8
0
100
AcDbPolyline
90
8
70
1
43
0.0
10
141.71262218917403
20
65.231422316444736
10
140.01578167555553
20
78.120205519887094
42
-0.41421350125514556
10
140.44624102375087
20
78.681190943241688
10
153.33502412375086
20
80.378031443241696
42
-0.41421356237311557
10
153.89600965054782
20
79.947572108664787
10
155.59285016416621
20
67.058788905222428
42
-0.41421350125508366
10
155.16239081597092
20
66.497803481867876
10
142.27360761252862
20
64.800962968249465
42
-0.41421350125505274
0
LWPOLYLINE
5
101
100
AcDbEntity
8
0
100
AcDbPolyline
90
8
70
1
43
0.0
10
121.40506230936592
20
77.105384912096582
42
-0.41421356634592715
10
121.88277672617836
20
77.626718723345675
10
134.87040362617827
20
78.193770823345716
42
-0.41421355840027285
10
135.39173743035607
20
77.716056413012993
10
135.95878953035606
20
64.728429513012998
42
-0.41421356237311585
10
135.48107512031916
20
64.207095702059647
10
122.49344822031918
20
63.640043602059713
42
-0.41421356237308465
10
121.97211440936583
20
64.117758012096601
0
LWPOLYLINE
5
102
100
AcDbEntity
8
0
100
AcDbPolyline
90
8
70
1
43
0.0
10
59.021069332787022
20
90.36453237753804
42
-0.4142135049200602
10
58.628221865710088
20
90.952470103434877
10
61.164396038995186
20
103.70267880874877
42
-0.41421350492002473
10
61.752333819861036
20
104.0955263125548
10
74.502542506935072
20
101.55935204757156
42
-0.41421354680485006
10
74.89538996006263
20
100.97141425154675
10
72.359215754877766
20
88.221205625480792
42
-0.41421350492003167
10
71.771278028980959
20
87.828358158403859
0
LWPOLYLINE
5
103
100
AcDbEntity
8
0
100
AcDbPolyline
90
8
70
1
43
0.0
10
37.597285919861051
20
87.639137212554843
42
0.41421356237303264
10
37.097285919861079
20
88.139137212554857
10
24.097285919861058
20
88.139137212554857
42
0.41421356237309509
10
23.597285919861051
20
87.639137212554843
10
23.597285919861051
20
74.639137212554829
42
0.41421356237311585
10
24.097285919861058
20
74.139137212554857
10
37.097285919861051
20
74.139137212554857
42
0.41421356237311585
10
37.597285919861051
20
74.639137212554871
0
LWPOLYLINE
5
104
100
AcDbEntity
8
0
100
AcDbPolyline
90
8
70
1
43
0.0
10
84.273062188496624
20
79.947572103518809
42
-0.41421356541360588
10
84.834047715971053
20
80.378031443241724
10
97.722830815971065
20
78.681190943241688
42
-0.41421350125510703
10
98.153290164166336
20
78.120205519887122
10
96.45644965122537
20
65.231422321590856
42
-0.41421350429559578
10
95.895464227193344
20
64.800962968249465
10
83.006681023750957
20
66.497803481867948
42
-0.41421350125509404
10
82.576221675555615
20
67.058788905222542
0
LWPOLYLINE
5
105
100
AcDbEntity
8
0
100
AcDbPolyline
90
8
70
1
43
0.0
10
23.216285919861043
20
68.589137212554874
10
23.216285919861043
20
55.589137212554931
42
0.4142135623731783
10
23.716285919861051
20
55.089137212554924
10
36.716285919861036
20
55.089137212554924
42
0.41421356237311585
10
37.216285919861043
20
55.589137212554895
10
37.216285919861043
20
68.589137212554903
42
0.41421356237313667
10
36.716285919861036
20
69.089137212554903
10
23.716285919861051
20
69.089137212554874
42
0.41421356237309509
0
LWPOLYLINE
5
106
100
AcDbEntity
8
0
100
AcDbPolyline
90
8
70
1
43
0.0
10
192.05224422719326
20
87.04553145686009
42
-0.41421350125526929
10
192.61322965054785
20
86.615072108664748
10
194.31007016416626
20
73.726288905222432
42
-0.41421350125510703
10
193.87961081597095
20
73.165303481867852
10
180.99082771597094
20
71.468462981867873
42
-0.41421356237307444
10
180.42984218917397
20
71.898922316444782
10
178.73300168917396
20
84.787705416444723
42
-0.41421356237313628
10
179.16346102375087
20
85.348690943241579
0
LWPOLYLINE
5
107
100
AcDbEntity
8
0
100
AcDbPolyline
90
8
70
1
43
0.0
10
77.704448364627169
20
86.95819110564976
10
79.682052319858784
20
99.806890712540266
42
-0.41421356238164309
10
80.252294819861007
20
100.22500981255479
10
93.100994412970479
20
98.247405767786447
42
-0.41421356236445911
10
93.519113475094855
20
97.677163319459837
10
91.541509475092639
20
84.828463719445296
42
-0.41421356236447415
10
90.971267026766029
20
84.410344657320906
10
78.122567426766068
20
86.387948657320919
42
-0.41421356237310847
0
LWPOLYLINE
5
108
100
AcDbEntity
8
0
100
AcDbPolyline
90
8
70
1
43
0.0
10
188.93521379015846
20
33.741191045074892
42
-0.41421352605275646
10
188.51958691362023
20
33.169129651956588
10
175.67963841606741
20
31.135481636505737
42
-0.41421350451567446
10
175.10757705926261
20
31.551108518795417
10
173.07392900440999
20
44.391057010107602
42
-0.41421350451574079
10
173.48955591986086
20
44.963118412554834
10
186.32950442365427
20
46.996766388603852
42
-0.41421354083592382
10
186.90156579015849
20
46.581139445074911
0
LWPOLYLINE
5
109
100
AcDbEntity
8
0
100
AcDbPolyline
90
8
70
1
43
0.0
10
76.416960649563421
20
28.942713845075048
10
78.450608649563407
20
41.782662245074995
42
-0.41421356237306584
10
79.022670052381088
20
42.198289182852413
10
91.862618452381085
20
40.164641182852421
42
-0.41421354083598549
10
92.278245395910062
20
39.592579816348277
10
90.244597380459211
20
26.75263131879543
42
-0.41421352605275102
10
89.672535987340879
20
26.337004442257275
10
76.83258758734091
20
28.370652442257338
42
-0.41421356237304208
0
LWPOLYLINE
5
110
100
AcDbEntity
8
0
100
AcDbPolyline
90
8
70
1
43
0.0
10
79.082377121898503
20
61.86974442214062
42
-0.41421356237307255
10
79.467495129446746
20
61.276714810517312
10
76.764643129446796
20
48.560796010517393
42
-0.41421356237311541
10
76.171613517823459
20
48.175678002969136
10
63.455694674452097
20
50.87853001218793
42
-0.41421353639917347
10
63.070576710275191
20
51.471559614592337
10
65.773428719860988
20
64.187478412554839
42
-0.41421356237311979
10
66.366458319860982
20
64.57259641255483
0
LWPOLYLINE
5
111
100
AcDbEntity
8
0
100
AcDbPolyline
90
8
70
1
43
0.0
10
214.66703591986084
20
87.0676372125547
42
0.4142135623730534
10
214.16703591986084
20
87.567637212554786
10
201.16703591986084
20
87.5676372125547
42
0.41421356237301177
10
200.66703591986084
20
87.0676372125547
10
200.66703591986084
20
74.0676372125547
42
0.41421356237315743
10
201.16703591986084
20
73.567637212554729
10
214.16703591986084
20
73.567637212554757
42
0.41421356237326157
10
214.66703591986084
20
74.067637212554729
0
LWPOLYLINE
5
112
100
AcDbEntity
8
0
100
AcDbPolyline
90
8
70
1
43
0.0
10
40.566476582435072
20
92.62964254344368
42
-0.4142135386099336
10
40.123881846333603
20
93.181104109655621
10
41.539151246333603
20
106.10383650965562
42
-0.41421358613627979
10
42.090612857287006
20
106.546431281666
10
55.013345257287014
20
105.13116188166595
42
-0.41421353860990839
10
55.455939993388483
20
104.57970031545403
10
54.040670588972226
20
91.656967875128828
42
-0.41421356237311568
10
53.489208982435059
20
91.214373143443652
0
LWPOLYLINE
5
113
100
AcDbEntity
8
0
100
AcDbPolyline
90
8
70
1
43
0.0
10
60.878280280459229
20
31.904621718795525
42
-0.4142135045156301
10
60.306218923654455
20
31.488994836505775
10
47.466270426101637
20
33.522642851956732
42
-0.4142135045156301
10
47.050643543811958
20
34.094704208761435
10
49.08429153531187
20
46.934652710107727
42
-0.41421350451567646
10
49.656352919861021
20
47.350279612554935
10
62.496301352381145
20
45.316631582852445
42
-0.41421356237305396
10
62.911928290158563
20
44.744570180034735
0
LWPOLYLINE
5
114
100
AcDbEntity
8
0
100
AcDbPolyline
90
8
70
1
43
0.0
10
79.700465423421008
20
80.75409400558577
10
76.886750523420943
20
68.062245905585783
42
-0.41421356237312557
10
76.290382712891912
20
67.682317708994873
10
63.598534618782296
20
70.496032607688974
42
-0.41421356590736769
10
63.218606416301043
20
71.092400419523869
10
66.032321298730082
20
83.784248517239462
42
-0.41421361956313396
10
66.628689219860973
20
84.164176712554806
10
79.320537226830069
20
81.350461816114787
42
-0.41421356237316614
0
LWPOLYLINE
5
115
100
AcDbEntity
8
0
100
AcDbPolyline
90
8
70
1
43
0.0
10
174.95046542342089
20
71.092400419523827
42
-0.41421356237300472
10
174.57053722683
20
70.49603260899481
10
161.878689216255
20
67.682317728819896
42
-0.41421361602892853
10
161.28232131630097
20
68.062245905585712
10
158.46860644099186
20
80.754093917239373
42
-0.41421361956319747
10
158.84853461986094
20
81.350461812554755
10
171.54038271289178
20
84.164176716114667
42
-0.41421356237322149
10
172.13675052342083
20
83.784248519523771
0
LWPOLYLINE
5
116
100
AcDbEntity
8
0
100
AcDbPolyline
90
8
70
1
43
0.0
10
150.70593998897209
20
85.364889149980741
42
-0.41421356237309509
10
150.26334525728689
20
84.813427543443566
10
137.34061285728689
20
83.398158143443595
42
-0.41421356237303525
10
136.7891512507498
20
83.840752875128715
10
135.37388181986103
20
96.763485312554735
42
-0.41421356237305368
10
135.81647661986096
20
97.314946912554745
10
148.73920898243495
20
98.730216281665946
42
-0.41421356237307438
10
149.29067058897215
20
98.287621549980742
0
LWPOLYLINE
5
117
100
AcDbEntity
8
0
100
AcDbPolyline
90
4
70
1
43
0.0
10
107.62593502061142
20
109.53801260691395
10
107.62593502061144
20
131.0868970370517
10
122.66330090407628
20
131.0868970370517
10
122.66330090407627
20
109.53801260691395
0
CIRCLE
5
118
100
AcDbEntity
8
0
100
AcDbCircle
10
16.946003481225397
20
114.95756710346818
30
0
40
1.25
210
0
220
0
230
1
0
LWPOLYLINE
5
119
100
AcDbEntity
8
0
100
AcDbPolyline
90
8
70
1
43
0.0
10
193.7667442271933
20
67.972671456860098
42
-0.41421350125518958
10
194.32772965054789
20
67.542212108664785
10
196.02457016416616
20
54.653428905222476
42
-0.41421350125516893
10
195.59411081597085
20
54.092443481867925
10
182.70532761252861
20
52.395602968249442
42
-0.41421350125514556
10
182.14434218917398
20
52.826062316444755
10
180.447501689174
20
65.714845416444774
42
-0.41421356237307444
10
180.87796102375086
20
66.275830943241687
0
LWPOLYLINE
5
120
100
AcDbEntity
8
0
100
AcDbPolyline
90
8
70
1
43
0.0
10
143.472842189174
20
46.158562316444822
42
0.41421356237305379
10
144.03382771597086
20
45.728102981867913
10
156.92261081597084
20
47.424943481867921
42
0.41421350125504308
10
157.35307021986088
20
47.985928912554812
10
155.65622965054786
20
60.874712108664824
42
0.41421350125519302
10
155.09524421986089
20
61.30517151255475
10
142.20646102375093
20
59.60833094324169
42
0.41421350125505274
10
141.77600167555562
20
59.047345519887138
0
LWPOLYLINE
5
121
100
AcDbEntity
8
0
100
AcDbPolyline
90
8
70
1
43
0.0
10
199.23828591986086
20
35.586637212554812
10
199.23828591986086
20
48.586637212554855
42
-0.41421356237303264
10
199.73828591986086
20
49.086637212554862
10
212.7382859198608
20
49.08663721255472
42
-0.41421356237288687
10
213.23828591986083
20
48.58663721255482
10
213.2382859198608
20
35.586637212554741
42
-0.41421356237311585
10
212.7382859198608
20
35.086637212554734
10
199.73828591986086
20
35.08663721255477
42
-0.41421356237309509
0
LWPOLYLINE
5
122
100
AcDbEntity
8
0
100
AcDbPolyline
90
8
70
1
43
0.0
10
211.78578591986081
20
92.427137212554697
10
198.78578591986084
20
92.427137212554726
42
-0.41421356237321988
10
198.28578591986084
20
92.92713721255474
10
198.28578591986084
20
105.92713721255475
42
-0.41421356237313667
10
198.78578591986084
20
106.42713721255475
10
211.78578591986081
20
106.42713721255468
42
-0.41421356237313667
10
212.28578591986087
20
105.92713721255471
10
212.28578591986087
20
92.927137212554697
42
-0.41421356237311585
0
LWPOLYLINE
5
123
100
AcDbEntity
8
0
100
AcDbPolyline
90
8
70
1
43
0.0
10
156.41439608484416
20
86.243815625480693
10
153.87822187965935
20
98.994024251546733
42
-0.41421356237311951
10
154.27106935885286
20
99.581962052756339
10
167.02127802898076
20
102.11813626670569
42
-0.4142135049200602
10
167.60921575487777
20
101.7252887996288
10
170.14538997401189
20
88.975080103434792
42
-0.41421350492001946
10
169.75254250693493
20
88.387142377537984
10
157.00233381074102
20
85.850968158403802
42
-0.41421350491989284
0
LWPOLYLINE
5
124
100
AcDbEntity
8
0
100
AcDbPolyline
90
8
70
1
43
0.0
10
117.78889953065189
20
57.990614918872154
10
117.22184743065192
20
45.002988018872188
42
-0.41421356237319984
10
116.70051362617833
20
44.525273601763899
10
103.7128867194027
20
45.092325702059739
42
-0.41421355840027285
10
103.23517230907008
20
45.613659506237454
10
103.80222440936591
20
58.60128641301305
42
-0.41421355840031526
10
104.32355821354365
20
59.079000823345709
10
117.31118511354367
20
58.511948723345775
42
-0.41421356237314649
0
LWPOLYLINE
5
125
100
AcDbEntity
8
0
100
AcDbPolyline
90
8
70
1
43
0.0
10
45.196241023750979
20
73.165303481867909
42
-0.41421350125506573
10
44.765781675555665
20
73.726288905222503
10
46.462622132801997
20
86.615072110851116
42
-0.41421350429562154
10
47.023607619861039
20
87.045531512554817
10
59.912390810825002
20
85.348690943919223
42
-0.41421350429555315
10
60.342850164166386
20
84.78770551988714
10
58.646009650547924
20
71.898922316444811
42
-0.4142135623731184
10
58.085024123750969
20
71.468462981867944
0
LWPOLYLINE
5
126
100
AcDbEntity
8
0
100
AcDbPolyline
90
8
70
1
43
0.0
10
173.81735142346685
20
64.983280196289641
42
-0.41421361602896922
10
174.41371932342088
20
64.603352019523783
10
177.22743420359575
20
51.911504008948945
42
-0.41421361602892853
10
176.84750602682996
20
51.315136108994857
10
164.15565792682997
20
48.501421208994842
42
-0.41421356237313117
10
163.55929011630096
20
48.881349405585759
10
160.74557524099185
20
61.573197417239385
42
-0.4142136195631364
10
161.12550341986091
20
62.169565312554766
0
LWPOLYLINE
5
127
100
AcDbEntity
8
0
100
AcDbPolyline
90
8
70
1
43
0.0
10
144.23133214956329
20
26.41081358003472
10
142.19768414956334
20
39.250761980034703
42
-0.41421356237309509
10
142.61331108734083
20
39.822823382852341
10
155.4532594873408
20
41.856471382852369
42
-0.41421356237318052
10
156.0253208901585
20
41.44084444507488
10
158.05896889590994
20
28.600896008761367
42
-0.41421350451559225
10
157.6433420136203
20
28.028834651956593
10
144.80339351606742
20
25.995186636505778
42
-0.41421354083587952
0
LWPOLYLINE
5
128
100
AcDbEntity
8
0
100
AcDbPolyline
90
8
70
1
43
0.0
10
34.525535919861056
20
93.18913721255484
10
21.525535919861063
20
93.18913721255484
42
-0.41421356237309509
10
21.025535919861056
20
93.68913721255484
10
21.025535919861067
20
106.68913721255481
42
-0.41421356237309509
10
21.525535919861074
20
107.18913721255483
10
34.525535919861063
20
107.18913721255487
42
-0.41421356237309509
10
35.025535919861106
20
106.68913721255481
10
35.025535919861028
20
93.68913721255484
42
-0.41421356237309509
0
LWPOLYLINE
5
129
100
AcDbEntity
8
0
100
AcDbPolyline
90
8
70
1
43
0.0
10
97.748356055245893
20
83.669905050935469
42
-0.41421356237304241
10
97.282128158241676
20
84.201536077169834
10
98.132368720288795
20
97.173702119081113
42
-0.41421355854189651
10
98.66399981986099
20
97.639930012554785
10
111.63616578447609
20
96.789689374174117
42
-0.41421356237305418
10
112.10239368148032
20
96.258058347939723
10
111.25215308148027
20
83.285892347939694
42
-0.41421356237310608
10
110.72052205524594
20
82.819664450935477
0
LWPOLYLINE
5
130
100
AcDbEntity
8
0
100
AcDbPolyline
90
8
70
1
43
0.0
10
117.233978519861
20
96.667234612554793
10
130.23088491954539
20
96.950828127015541
42
-0.41421350380843952
10
130.74167333214081
20
96.461854612822691
10
131.02526683340088
20
83.464948255072045
42
-0.41421352853548077
10
130.53629332012889
20
82.95415980027488
10
117.53938692017648
20
82.670566298094002
42
-0.41421353764597041
10
117.02859850632102
20
83.159539870037491
10
116.74500501860084
20
96.156446170305472
42
-0.41421352853550075
0
LWPOLYLINE
5
131
100
AcDbEntity
8
0
100
AcDbPolyline
90
8
70
1
43
0.0
10
96.162566669380936
20
45.299135578184071
10
83.289081716083203
20
47.108385885674586
42
-0.41421353084512208
10
82.863534285490189
20
47.673106463034891
10
84.672784585490206
20
60.54659136303485
42
-0.41421356237308482
10
85.237505170341038
20
60.972138846925645
10
98.110990070341018
20
59.162888546925601
42
-0.41421356237311557
10
98.536537554231785
20
58.598167962074754
10
96.727287254231783
20
45.724683062074796
42
-0.41421356237309509
0
CIRCLE
5
132
100
AcDbEntity
8
0
100
AcDbCircle
10
16.886662844359662
20
26.853960018368763
30
0
40
1.2500000000000044
210
0
220
0
230
1
0
LWPOLYLINE
5
133
100
AcDbEntity
8
0
100
AcDbPolyline
90
8
70
1
43
0.0
10
57.685274569380965
20
52.019660578184101
10
44.811789669380993
20
53.828910878184146
42
-0.41421356237311557
10
44.386242185490232
20
54.393631463034922
10
46.195492492980748
20
67.267116416332655
42
-0.41421353084519275
10
46.760213070341052
20
67.692663846925683
10
59.633697970341061
20
65.883413546925624
42
-0.41421356237307444
10
60.059245454231785
20
65.31869296207482
10
58.24999514674127
20
52.445208008777087
42
-0.41421353084517221
0
LWPOLYLINE
5
134
100
AcDbEntity
8
0
100
AcDbPolyline
90
8
70
1
43
0.0
10
37.216285919861036
20
48.586637212554962
42
0.4142135623730534
10
36.716285919861065
20
49.086637212554933
10
23.71628591986104
20
49.086637212554933
42
0.41421356237307427
10
23.216285919861033
20
48.586637212554962
10
23.216285919861033
20
35.586637212554919
42
0.41421356237307427
10
23.71628591986104
20
35.086637212554876
10
36.716285919861029
20
35.086637212554876
42
0.4142135623730534
10
37.216285919861036
20
35.586637212554884
0
LWPOLYLINE
5
135
100
AcDbEntity
8
0
100
AcDbPolyline
90
8
70
1
43
0.0
10
116.28629512031918
20
77.626718723049919
42
-0.41421355840029456
10
116.7640095306519
20
77.10538491887209
10
116.19695743035605
20
64.117758012096573
42
-0.41421355840025292
10
115.67562362617829
20
63.640043601763878
10
102.68799672617833
20
64.207095701763876
42
-0.41421356237306428
10
102.21028230907004
20
64.728429506237461
10
102.77733440907005
20
77.716056406237442
42
-0.41421356237312629
10
103.29866821354369
20
78.193770823345716
0
LWPOLYLINE
5
136
100
AcDbEntity
8
0
100
AcDbPolyline
90
8
70
1
43
0.0
10
174.53858171608314
20
103.93038853943501
42
0.4142135308453635
10
174.11303428549013
20
103.36566796207471
10
175.92228458549013
20
90.492183062074716
42
0.41421356237307444
10
176.48700517034089
20
90.066635578183963
10
189.36049012363861
20
91.875885885674478
42
0.41421356237313911
10
189.78603751986094
20
92.440606512554737
10
187.97678724674114
20
105.3140914163325
42
0.41421356237321871
10
187.41206661986084
20
105.73963881255477
0
LWPOLYLINE
5
137
100
AcDbEntity
8
0
100
AcDbPolyline
90
8
70
1
43
0.0
10
124.13555821354363
20
44.7157736017639
42
-0.41421355840031526
10
123.61422440936587
20
45.19348801209663
10
123.04717230936583
20
58.181114912096596
42
-0.41421356634593753
10
123.52488672617824
20
58.702448723345775
10
136.5125136261783
20
59.269500823345709
42
-0.414213562373137
10
137.03384743065189
20
58.791786406237421
10
137.60089953035603
20
45.804159513013083
42
-0.41421356237315832
10
137.12318512031914
20
45.282825702059704
0
LWPOLYLINE
5
138
100
AcDbEntity
8
0
100
AcDbPolyline
90
8
70
1
43
0.0
10
201.23853591986085
20
54.827137212554788
42
0.41421356237303264
10
201.73853591986079
20
54.32713721255471
10
214.73853591986082
20
54.327137212554781
42
0.41421356237299095
10
215.23853591986091
20
54.827137212554753
10
215.23853591986091
20
67.827137212554732
42
0.41421356237313667
10
214.73853591986085
20
68.327137212554732
10
201.73853591986085
20
68.327137212554732
42
0.41421356237307427
10
201.23853591986088
20
67.827137212554732
0
LINE
5
139
100
AcDbEntity
8
0
100
AcDbLine
10
107.62593502061144
20
131.0868970370517
30
0
11
107.62593502061142
21
136.64989555942952
31
0
0
LINE
5
140
100
AcDbEntity
8
0
100
AcDbLine
10
122.66330090407628
20
131.0868970370517
30
0
11
122.66330090407628
21
136.60121281156756
31
0
0
LINE
5
141
100
AcDbEntity
8
0
100
AcDbLine
10
105.44160548594922
20
133.44046339118421
30
0
11
105.4416054859492
21
107.76413689963043
31
0
0
LINE
5
142
100
AcDbEntity
8
0
100
AcDbLine
10
105.4416054859492
20
107.76413689963043
30
0
11
124.49703791661655
21
107.76413689963043
31
0
0
LINE
5
143
100
AcDbEntity
8
0
100
AcDbLine
10
124.49703791661655
20
107.76413689963043
30
0
11
124.49703791661655
21
133.41350197371202
31
0
0
LWPOLYLINE
5
144
100
AcDbEntity
8
0
100
AcDbPolyline
90
8
70
1
43
0.0
10
116.59037467308059
20
42.002676842269686
10
103.60274775401405
20
42.569728943102199
42
-0.41421356052522135
10
100.71257554957592
20
45.723798459335029
10
101.27962765040834
20
58.711425378401721
42
-0.41421356052523595
10
104.43369716664131
20
61.601597582839901
10
117.42132407893234
20
61.034545482303315
42
-0.4142135611819282
10
120.31149629014604
20
57.880475965774238
10
119.74444418960948
20
44.892849053483523
42
-0.41421356118192043
0
LWPOLYLINE
5
145
100
AcDbEntity
8
0
100
AcDbPolyline
90
8
70
1
43
0.0
10
139.55644419014607
20
58.901925359334626
10
140.12349628931358
20
45.914298478401747
42
-0.41421356024820161
10
137.23332410763291
20
42.760228944059463
10
124.24569717893229
20
42.193176842806359
42
-0.41421355959153416
10
121.09162765136561
20
45.083349024782862
10
120.5245755504083
20
58.070975946707918
42
-0.41421356422098432
10
123.41474777308078
20
61.225045482839953
10
136.40237466078963
20
61.792097582303242
42
-0.41421356356434624
0
LINE
5
146
100
AcDbEntity
8
0
100
AcDbLine
10
101.82820396585106
20
38.080015003716838
30
0
11
99.794555950400209
21
25.240066506163995
31
0
0
LINE
5
147
100
AcDbEntity
8
0
100
AcDbLine
10
134.68137357962232
20
24.89824876740331
30
0
11
132.64772557962235
21
37.738197167403293
31
0
0
CIRCLE
5
148
100
AcDbEntity
8
0
100
AcDbCircle
10
-117.17736694504461
20
25.02043261719594
30
0
40
10
210
0
220
0
230
-1
0
CIRCLE
5
149
100
AcDbEntity
8
0
100
AcDbCircle
10
-117.10359546614961
20
25.342194632225137
30
0
40
14.000000000000004
210
0
220
0
230
-1
0
LINE
5
150
100
AcDbEntity
8
0
100
AcDbLine
10
89.277538970907472
20
23.84309138102023
30
0
11
76.437590570907503
21
25.876739381020293
31
0
0
LINE
5
151
100
AcDbEntity
8
0
100
AcDbLine
10
158.03833903005366
20
25.534921590719545
30
0
11
145.19839053250078
21
23.50127357526873
31
0
0
LINE
5
152
100
AcDbEntity
8
0
100
AcDbLine
10
89.121104508953664
20
22.855403039936256
30
0
11
76.281156108953695
21
24.889051039936319
31
0
0
LINE
5
153
100
AcDbEntity
8
0
100
AcDbLine
10
158.19477349200747
20
24.547233249635568
30
0
11
145.35482499445459
21
22.513585234184752
31
0
0
LINE
5
154
100
AcDbEntity
8
0
100
AcDbLine
10
59.754787445267226
20
28.007393434184756
30
0
11
46.914838947714408
21
30.041041449635713
31
0
0
LINE
5
155
100
AcDbEntity
8
0
100
AcDbLine
10
23.71628591986104
20
31.561637212554878
30
0
11
36.716285919861029
21
31.561637212554878
31
0
0
LINE
5
156
100
AcDbEntity
8
0
100
AcDbLine
10
189.07101839200743
20
29.687528249635562
30
0
11
176.23106989445461
21
27.653880234184712
31
0
0
LINE
5
157
100
AcDbEntity
8
0
100
AcDbLine
10
212.7382859198608
20
31.561637212554736
30
0
11
199.73828591986086
21
31.561637212554771
31
0
0
LINE
5
158
100
AcDbEntity
8
0
100
AcDbLine
10
218.76353591986089
20
54.827137212554753
30
0
11
218.76353591986089
21
67.827137212554732
31
0
0
LINE
5
159
100
AcDbEntity
8
0
100
AcDbLine
10
218.19203591986081
20
74.067637212554729
30
0
11
218.19203591986081
21
87.0676372125547
31
0
0
LINE
5
160
100
AcDbEntity
8
0
100
AcDbLine
10
215.81078591986085
20
105.92713721255471
30
0
11
215.81078591986085
21
92.927137212554697
31
0
0
LINE
5
161
100
AcDbEntity
8
0
100
AcDbLine
10
214.16703591986084
20
90.092637212554777
30
0
11
201.16703591986084
21
90.092637212554706
31
0
0
LINE
5
162
100
AcDbEntity
8
0
100
AcDbLine
10
19.691285919861031
20
48.586637212554962
30
0
11
19.691285919861031
21
35.586637212554919
31
0
0
LINE
5
163
100
AcDbEntity
8
0
100
AcDbLine
10
19.691285919861041
20
68.589137212554874
30
0
11
19.691285919861041
21
55.589137212554931
31
0
0
LINE
5
164
100
AcDbEntity
8
0
100
AcDbLine
10
20.072285919861052
20
87.639137212554843
30
0
11
20.072285919861052
21
74.639137212554829
31
0
0
LINE
5
165
100
AcDbEntity
8
0
100
AcDbLine
10
17.500535919861058
20
93.68913721255484
30
0
11
17.500535919861065
21
106.68913721255481
31
0
0
LINE
5
166
100
AcDbEntity
8
0
100
AcDbLine
10
21.525535919861063
20
110.71413721255482
30
0
11
34.525535919861056
21
110.71413721255485
31
0
0
LINE
5
167
100
AcDbEntity
8
0
100
AcDbLine
10
42.474368598263084
20
110.0504798731196
30
0
11
55.397100998263092
21
108.63521047311954
31
0
0
LINE
5
168
100
AcDbEntity
8
0
100
AcDbLine
10
62.440027223344316
20
107.55279442232089
30
0
11
75.190235910418352
21
105.01662015733766
31
0
0
LINE
5
169
100
AcDbEntity
8
0
100
AcDbLine
10
80.788529764368761
20
103.70898413569336
30
0
11
93.637229357478233
21
101.731380090925
31
0
0
LINE
5
170
100
AcDbEntity
8
0
100
AcDbLine
10
98.894545839825852
20
101.15738271766375
30
0
11
111.86671180444095
21
100.3071420792831
31
0
0
LINE
5
171
100
AcDbEntity
8
0
100
AcDbLine
10
117.15708104795361
20
100.19139575796433
30
0
11
130.153987447638
21
100.47498927242508
31
0
0
LINE
5
172
100
AcDbEntity
8
0
100
AcDbLine
10
135.43272088606301
20
100.81899550479447
30
0
11
148.35545324863699
21
102.23426487390567
31
0
0
LINE
5
173
100
AcDbEntity
8
0
100
AcDbLine
10
153.58337596780171
20
103.03923016499533
30
0
11
166.33358463792962
21
105.57540437894468
31
0
0
LINE
5
174
100
AcDbEntity
8
0
100
AcDbLine
10
186.92148144982161
20
109.23033375639298
30
0
11
174.04799654604392
21
107.42108348327322
31
0
0
LINE
5
175
100
AcDbEntity
8
0
100
AcDbLine
10
198.78578591986087
20
109.95213721255475
30
0
11
211.78578591986084
21
109.95213721255467
31
0
0
LINE
5
176
100
AcDbEntity
8
0
100
AcDbLine
10
216.76328591986081
20
48.586637212554812
30
0
11
216.76328591986078
21
35.586637212554734
31
0
0
CIRCLE
5
177
100
AcDbEntity
8
0
100
AcDbCircle
10
-117.10359546614961
20
25.342194632225137
30
0
40
15.000000000000004
210
0
220
0
230
-1
0
LWPOLYLINE
5
178
100
AcDbEntity
8
0
100
AcDbPolyline
90
16
70
1
43
0.0
10
61.33092205852482
20
123.62831241756624
10
23.014544069310841
20
123.62831241756624
42
0.4142135623730952
10
7.5596266600769102
20
108.17339500833239
10
7.5596266600768658
20
34.201354677090841
42
0.41421356237309553
10
23.014544069310723
20
18.74643726785694
10
64.773738380621779
20
18.746437267856884
10
77.352196711014244
20
15.371687154827463
42
0.12587278423577181
10
154.17087467956708
20
14.47329614867002
10
170.67448969513265
20
18.489870098833588
10
213.28475206317279
20
18.489870098833414
42
0.41421356237309787
10
228.78317854034262
20
33.988296576003385
10
228.78317854034265
20
108.04320214085109
42
0.41413899285777728
10
213.28793460017516
20
123.54239171833926
10
169.80193221869308
20
123.55346338361782
10
149.01630733847091
20
131.5673242699398
42
0.19200241250927172
10
78.65403287711473
20
130.76505091956085
0
LWPOLYLINE
5
179
100
AcDbEntity
8
0
100
AcDbPolyline
90
16
70
1
43
0.0
10
59.945482868246714
20
130.62831241756624
10
23.014544069310841
20
130.62831241756624
42
0.41421356237309492
10
0.55962666007690842
20
108.17339500833241
10
0.55962666007686401
20
34.201354677090841
42
0.41421356237309531
10
23.01454406931072
20
11.746437267856935
10
63.851018813159541
20
11.746437267856887
10
75.538275799419452
20
8.6107929146785445
42
0.12587278423577189
10
155.82618438557341
20
7.6718294114727081
10
171.51405031305194
20
11.489870098833579
10
213.28475206317276
20
11.489870098833412
42
0.41421356237309837
10
235.78317854034259
20
33.988296576003457
10
235.78317854034265
20
108.04320214085109
42
0.41413899285777656
10
213.28971682089431
20
130.54239149145991
10
171.10547761262225
20
130.55313172397078
10
151.53446767933679
20
138.09869996711802
42
0.19200241250927189
10
75.987604574267834
20
137.2373117382993
0
LWPOLYLINE
5
180
100
AcDbEntity
8
0
100
AcDbPolyline
90
16
70
1
43
0.0
10
61.133002171250126
20
124.6283124324674
10
23.014544069310841
20
124.6283124324674
42
0.41421356237309492
10
6.5596266451757472
20
108.17339500833241
10
6.5596266451757046
20
34.201354677090841
42
0.41421356237309542
10
23.01454406931072
20
17.746437252955776
10
64.641921297591537
20
17.746437252955722
10
77.093065148353617
20
14.405845106128279
42
0.12587278423577181
10
154.40734749823451
20
13.50165802887755
10
170.79442692805117
20
17.489870083932423
10
213.28475206317279
20
17.489870083932253
42
0.41421356237309787
10
229.78317855524378
20
33.988296576003393
10
229.78317855524381
20
108.04320214085109
42
0.41413899285777711
10
213.28818920313881
20
124.54239170082911
10
169.98815299202931
20
124.5534160185687
10
149.37604453538367
20
132.50037795486887
42
0.19200241250927177
10
78.273114542460476
20
131.68965962172982
0
CIRCLE
5
181
100
AcDbEntity
8
0
100
AcDbCircle
10
219.99939569118965
20
28.007368990397687
30
0
40
1.2500000000000044
210
0
220
0
230
1
0
CIRCLE
5
182
100
AcDbEntity
8
0
100
AcDbCircle
10
218.99895243288984
20
114.50360670773199
30
0
40
1.25
210
0
220
0
230
1
0
LWPOLYLINE
5
183
100
AcDbEntity
8
0
100
AcDbPolyline
90
32
70
1
43
0.0
10
121.53293664844674
20
33.24118273305983
10
121.57363664844674
20
33.124182733059811
10
121.58743664844675
20
33.002182733059811
10
121.58743664844677
20
17.252182733059925
10
121.57363664844675
20
17.13018273305989
10
121.53293664844675
20
17.013182733059903
10
121.46743664844676
20
16.909182733059914
10
121.38033664844677
20
16.822182733059915
10
121.27603664844673
20
16.756182733059909
10
121.15983664844676
20
16.716182733059902
10
121.03743664844674
20
16.70218273305991
10
113.5374366484468
20
16.70218273305991
10
113.41503664844686
20
16.716182733059895
10
113.29883664844681
20
16.756182733059909
10
113.19453664844679
20
16.822182733059915
10
113.10743664844682
20
16.909182733059897
10
113.04193664844681
20
17.013182733059903
10
113.00123664844682
20
17.13018273305989
10
112.98743664844685
20
17.25218273305989
10
112.98743664844682
20
33.002182733059811
10
113.00123664844679
20
33.124182733059811
10
113.04193664844678
20
33.241182733059794
10
113.10743664844681
20
33.345182733059829
10
113.19453664844676
20
33.432182733059797
10
113.29883664844679
20
33.498182733059785
10
113.41503664844683
20
33.538182733059834
10
113.53743664844679
20
33.552182733059809
10
121.03743664844673
20
33.552182733059809
10
121.15983664844674
20
33.538182733059834
10
121.27603664844672
20
33.498182733059785
10
121.38033664844676
20
33.432182733059797
10
121.46743664844675
20
33.345182733059829
0
LWPOLYLINE
5
184
100
AcDbEntity
8
0
100
AcDbPolyline
90
32
70
1
43
0.0
10
113.17733664844675
20
33.278182733059786
10
113.11813664844679
20
33.176182733059846
10
113.08743664844677
20
33.061182733059852
10
113.08743664844677
20
33.002182733059811
10
113.08743664844678
20
17.25218273305989
10
113.08743664844678
20
17.193182733059892
10
113.11813664844681
20
17.078182733059887
10
113.17733664844678
20
16.976182733059911
10
113.26113664844681
20
16.892182733059894
10
113.36373664844686
20
16.833182733059925
10
113.47823664844682
20
16.802182733059897
10
113.5374366484468
20
16.802182733059897
10
121.03743664844674
20
16.802182733059908
10
121.09663664844673
20
16.802182733059908
10
121.21113664844674
20
16.833182733059925
10
121.31373664844675
20
16.892182733059929
10
121.39753664844677
20
16.976182733059911
10
121.45673664844674
20
17.078182733059922
10
121.48743664844675
20
17.193182733059892
10
121.48743664844675
20
17.252182733059925
10
121.48743664844675
20
33.002182733059811
10
121.48743664844675
20
33.061182733059852
10
121.45673664844672
20
33.176182733059846
10
121.39753664844676
20
33.278182733059786
10
121.31373664844673
20
33.362182733059832
10
121.21113664844673
20
33.421182733059858
10
121.09663664844672
20
33.452182733059828
10
121.03743664844673
20
33.452182733059828
10
113.53743664844679
20
33.452182733059828
10
113.47823664844681
20
33.452182733059828
10
113.36373664844685
20
33.421182733059808
10
113.26113664844678
20
33.362182733059818
0
LWPOLYLINE
5
185
100
AcDbEntity
8
0
100
AcDbPolyline
90
4
70
1
43
0.0
10
123.24023664844673
20
30.632182733059853
10
122.04023664844672
20
30.632182733059853
10
122.04023664844672
20
31.832182733059856
10
123.24023664844673
20
31.832182733059856
0
LWPOLYLINE
5
186
100
AcDbEntity
8
0
100
AcDbPolyline
90
24
70
1
43
0.0
10
122.48493664844672
20
23.53218273305988
10
122.34023664844673
20
23.592182733059857
10
122.21593664844674
20
23.688182733059847
10
122.12063664844672
20
23.81218273305986
10
122.06073664844672
20
23.957182733059859
10
122.04023664844672
20
24.112182733059896
10
122.06073664844672
20
24.267182733059901
10
122.12063664844672
20
24.412182733059854
10
122.21593664844674
20
24.53618273305986
10
122.34023664844673
20
24.632182733059903
10
122.48493664844672
20
24.692182733059887
10
122.6402366484467
20
24.712182733059866
10
122.79553664844673
20
24.692182733059887
10
122.94023664844673
20
24.632182733059903
10
123.06453664844676
20
24.53618273305986
10
123.15983664844671
20
24.412182733059854
10
123.21983664844669
20
24.267182733059901
10
123.24023664844673
20
24.112182733059896
10
123.21983664844669
20
23.957182733059859
10
123.15983664844671
20
23.81218273305986
10
123.06453664844676
20
23.688182733059847
10
122.94023664844673
20
23.592182733059857
10
122.79553664844673
20
23.53218273305988
10
122.6402366484467
20
23.512182733059891
0
LWPOLYLINE
5
187
100
AcDbEntity
8
0
100
AcDbPolyline
90
24
70
1
43
0.0
10
123.06453664844676
20
29.02818273305979
10
122.94023664844673
20
28.932182733059847
10
122.79553664844673
20
28.872182733059834
10
122.6402366484467
20
28.852182733059845
10
122.48493664844672
20
28.872182733059834
10
122.34023664844673
20
28.932182733059847
10
122.21593664844674
20
29.02818273305979
10
122.12063664844672
20
29.152182733059856
10
122.06073664844672
20
29.297182733059849
10
122.04023664844672
20
29.452182733059832
10
122.06073664844672
20
29.607182733059808
10
122.12063664844672
20
29.752182733059843
10
122.21593664844674
20
29.876182733059849
10
122.34023664844673
20
29.972182733059864
10
122.48493664844672
20
30.032182733059848
10
122.6402366484467
20
30.052182733059812
10
122.79553664844673
20
30.032182733059848
10
122.94023664844673
20
29.972182733059864
10
123.06453664844676
20
29.876182733059849
10
123.15983664844671
20
29.752182733059843
10
123.21983664844669
20
29.607182733059808
10
123.24023664844673
20
29.452182733059832
10
123.21983664844669
20
29.297182733059849
10
123.15983664844671
20
29.152182733059856
0
LWPOLYLINE
5
188
100
AcDbEntity
8
0
100
AcDbPolyline
90
24
70
1
43
0.0
10
111.64023664844684
20
29.082182733059852
10
111.78493664844683
20
29.142182733059784
10
111.94023664844681
20
29.162182733059815
10
112.0955366484468
20
29.142182733059784
10
112.24023664844681
20
29.082182733059852
10
112.36453664844683
20
28.986182733059852
10
112.4598366484468
20
28.862182733059814
10
112.51983664844676
20
28.71718273305985
10
112.54023664844679
20
28.562182733059846
10
112.51983664844676
20
28.407182733059852
10
112.4598366484468
20
28.262182733059852
10
112.36453664844683
20
28.138182733059814
10
112.24023664844681
20
28.04218273305985
10
112.0955366484468
20
27.982182733059847
10
111.94023664844681
20
27.962182733059851
10
111.78493664844683
20
27.982182733059847
10
111.64023664844684
20
28.04218273305985
10
111.51593664844684
20
28.138182733059814
10
111.42063664844683
20
28.262182733059852
10
111.36073664844682
20
28.407182733059834
10
111.34023664844683
20
28.562182733059846
10
111.36073664844682
20
28.717182733059833
10
111.42063664844683
20
28.862182733059814
10
111.51593664844684
20
28.986182733059852
0
LWPOLYLINE
5
189
100
AcDbEntity
8
0
100
AcDbPolyline
90
24
70
1
43
0.0
10
111.51593664844684
20
29.918182733059812
10
111.42063664844683
20
30.042182733059789
10
111.36073664844682
20
30.187182733059817
10
111.34023664844683
20
30.342182733059818
10
111.36073664844682
20
30.497182733059795
10
111.42063664844683
20
30.642182733059794
10
111.51593664844684
20
30.766182733059825
10
111.64023664844684
20
30.862182733059814
10
111.78493664844683
20
30.922182733059834
10
111.94023664844681
20
30.942182733059781
10
112.0955366484468
20
30.922182733059834
10
112.24023664844681
20
30.862182733059814
10
112.36453664844683
20
30.766182733059853
10
112.4598366484468
20
30.642182733059812
10
112.51983664844676
20
30.497182733059812
10
112.54023664844679
20
30.342182733059818
10
112.51983664844676
20
30.187182733059817
10
112.4598366484468
20
30.042182733059807
10
112.36453664844683
20
29.918182733059812
10
112.24023664844681
20
29.822182733059851
10
112.0955366484468
20
29.762182733059813
10
111.94023664844681
20
29.742182733059813
10
111.78493664844683
20
29.762182733059813
10
111.64023664844684
20
29.822182733059851
0
LWPOLYLINE
5
190
100
AcDbEntity
8
0
100
AcDbPolyline
90
24
70
1
43
0.0
10
122.06073664844672
20
22.177182733059887
10
122.04023664844672
20
22.332182733059899
10
122.06073664844672
20
22.487182733059935
10
122.12063664844672
20
22.632182733059917
10
122.21593664844674
20
22.756182733059894
10
122.34023664844673
20
22.852182733059866
10
122.48493664844672
20
22.912182733059861
10
122.6402366484467
20
22.932182733059857
10
122.7955366484467
20
22.912182733059861
10
122.94023664844671
20
22.852182733059866
10
123.06453664844676
20
22.756182733059894
10
123.15983664844671
20
22.632182733059917
10
123.21983664844669
20
22.487182733059935
10
123.24023664844673
20
22.332182733059899
10
123.21983664844669
20
22.177182733059887
10
123.15983664844671
20
22.032182733059894
10
123.06453664844676
20
21.908182733059892
10
122.94023664844671
20
21.812182733059903
10
122.7955366484467
20
21.7521827330599
10
122.6402366484467
20
21.732182733059883
10
122.48493664844672
20
21.7521827330599
10
122.34023664844673
20
21.812182733059903
10
122.21593664844674
20
21.908182733059892
10
122.12063664844672
20
22.032182733059894
0
LWPOLYLINE
5
191
100
AcDbEntity
8
0
100
AcDbPolyline
90
24
70
1
43
0.0
10
112.4598366484468
20
27.082182733059849
10
112.51983664844676
20
26.937182733059849
10
112.54023664844679
20
26.782182733059813
10
112.51983664844676
20
26.627182733059843
10
112.4598366484468
20
26.482182733059826
10
112.36453664844683
20
26.358182733059849
10
112.24023664844681
20
26.262182733059852
10
112.0955366484468
20
26.20218273305985
10
111.94023664844681
20
26.18218273305985
10
111.78493664844683
20
26.20218273305985
10
111.64023664844684
20
26.262182733059852
10
111.51593664844684
20
26.358182733059849
10
111.42063664844683
20
26.482182733059826
10
111.36073664844682
20
26.627182733059843
10
111.34023664844683
20
26.782182733059813
10
111.36073664844682
20
26.937182733059831
10
111.42063664844683
20
27.082182733059831
10
111.51593664844684
20
27.206182733059844
10
111.64023664844684
20
27.302182733059851
10
111.78493664844683
20
27.362182733059811
10
111.94023664844681
20
27.382182733059818
10
112.0955366484468
20
27.362182733059811
10
112.24023664844681
20
27.302182733059851
10
112.36453664844683
20
27.206182733059844
0
LWPOLYLINE
5
192
100
AcDbEntity
8
0
100
AcDbPolyline
90
24
70
1
43
0.0
10
122.04023664844672
20
27.672182733059859
10
122.06073664844672
20
27.827182733059853
10
122.12063664844672
20
27.972182733059853
10
122.21593664844674
20
28.096182733059866
10
122.34023664844673
20
28.192182733059855
10
122.48493664844672
20
28.252182733059851
10
122.6402366484467
20
28.272182733059847
10
122.79553664844673
20
28.252182733059851
10
122.94023664844673
20
28.192182733059855
10
123.06453664844676
20
28.096182733059866
10
123.15983664844671
20
27.972182733059853
10
123.21983664844669
20
27.827182733059853
10
123.24023664844673
20
27.672182733059859
10
123.21983664844669
20
27.517182733059865
10
123.15983664844671
20
27.372182733059848
10
123.06453664844676
20
27.248182733059853
10
122.94023664844673
20
27.152182733059856
10
122.79553664844673
20
27.092182733059854
10
122.6402366484467
20
27.072182733059847
10
122.48493664844672
20
27.092182733059854
10
122.34023664844673
20
27.152182733059856
10
122.21593664844674
20
27.248182733059853
10
122.12063664844672
20
27.372182733059848
10
122.06073664844672
20
27.517182733059865
0
LWPOLYLINE
5
193
100
AcDbEntity
8
0
100
AcDbPolyline
90
24
70
1
43
0.0
10
123.15983664844673
20
20.852182733059919
10
123.21983664844672
20
20.707182733059891
10
123.24023664844674
20
20.552182733059897
10
123.21983664844672
20
20.397182733059879
10
123.15983664844673
20
20.25218273305995
10
123.06453664844679
20
20.128182733059944
10
122.94023664844673
20
20.032182733059948
10
122.79553664844671
20
19.972182733059892
10
122.64023664844672
20
19.952182733059903
10
122.48493664844673
20
19.972182733059892
10
122.34023664844676
20
20.032182733059948
10
122.21593664844676
20
20.128182733059944
10
122.12063664844675
20
20.25218273305995
10
122.06073664844673
20
20.397182733059879
10
122.04023664844675
20
20.552182733059897
10
122.06073664844673
20
20.707182733059891
10
122.12063664844675
20
20.852182733059919
10
122.21593664844676
20
20.97618273305994
10
122.34023664844676
20
21.072182733059922
10
122.48493664844673
20
21.132182733059913
10
122.64023664844672
20
21.152182733059895
10
122.79553664844671
20
21.132182733059913
10
122.94023664844673
20
21.072182733059922
10
123.06453664844679
20
20.97618273305994
0
LWPOLYLINE
5
194
100
AcDbEntity
8
0
100
AcDbPolyline
90
24
70
1
43
0.0
10
111.36073664844682
20
25.157182733059877
10
111.42063664844683
20
25.302182733059858
10
111.51593664844684
20
25.426182733059846
10
111.64023664844684
20
25.522182733059818
10
111.78493664844683
20
25.582182733059863
10
111.94023664844681
20
25.602182733059852
10
112.0955366484468
20
25.582182733059863
10
112.24023664844681
20
25.522182733059818
10
112.36453664844683
20
25.426182733059846
10
112.4598366484468
20
25.302182733059858
10
112.51983664844676
20
25.157182733059877
10
112.54023664844679
20
25.002182733059865
10
112.51983664844676
20
24.847182733059864
10
112.4598366484468
20
24.702182733059882
10
112.36453664844683
20
24.578182733059894
10
112.24023664844681
20
24.482182733059851
10
112.0955366484468
20
24.422182733059866
10
111.94023664844681
20
24.402182733059853
10
111.78493664844683
20
24.422182733059866
10
111.64023664844684
20
24.482182733059851
10
111.51593664844684
20
24.578182733059858
10
111.42063664844683
20
24.702182733059853
10
111.36073664844682
20
24.847182733059853
10
111.34023664844683
20
25.002182733059865
0
LWPOLYLINE
5
195
100
AcDbEntity
8
0
100
AcDbPolyline
90
24
70
1
43
0.0
10
111.64023664844684
20
23.742182733059852
10
111.78493664844683
20
23.802182733059855
10
111.94023664844681
20
23.822182733059879
10
112.0955366484468
20
23.802182733059855
10
112.24023664844681
20
23.742182733059852
10
112.36453664844683
20
23.646182733059899
10
112.4598366484468
20
23.52218273305985
10
112.51983664844676
20
23.377182733059879
10
112.54023664844679
20
23.222182733059856
10
112.51983664844676
20
23.067182733059855
10
112.4598366484468
20
22.922182733059881
10
112.36453664844683
20
22.798182733059861
10
112.24023664844681
20
22.702182733059896
10
112.0955366484468
20
22.642182733059894
10
111.94023664844681
20
22.622182733059898
10
111.78493664844683
20
22.642182733059894
10
111.64023664844684
20
22.702182733059896
10
111.51593664844684
20
22.798182733059861
10
111.42063664844683
20
22.922182733059863
10
111.36073664844682
20
23.067182733059855
10
111.34023664844683
20
23.222182733059856
10
111.36073664844682
20
23.377182733059879
10
111.42063664844683
20
23.52218273305985
10
111.51593664844684
20
23.646182733059891
0
LWPOLYLINE
5
196
100
AcDbEntity
8
0
100
AcDbPolyline
90
24
70
1
43
0.0
10
122.79553664844671
20
18.192182733059919
10
122.64023664844672
20
18.17218273305992
10
122.48493664844673
20
18.192182733059919
10
122.34023664844676
20
18.252182733059922
10
122.21593664844676
20
18.348182733059964
10
122.12063664844675
20
18.472182733059913
10
122.06073664844673
20
18.617182733059924
10
122.04023664844675
20
18.7721827330599
10
122.06073664844673
20
18.927182733059901
10
122.12063664844675
20
19.072182733059893
10
122.21593664844676
20
19.196182733059942
10
122.34023664844676
20
19.292182733059896
10
122.48493664844673
20
19.352182733059898
10
122.64023664844672
20
19.372182733059905
10
122.79553664844671
20
19.352182733059898
10
122.94023664844673
20
19.292182733059896
10
123.06453664844679
20
19.196182733059942
10
123.15983664844673
20
19.072182733059893
10
123.21983664844672
20
18.927182733059901
10
123.24023664844674
20
18.7721827330599
10
123.21983664844672
20
18.617182733059924
10
123.15983664844673
20
18.472182733059913
10
123.06453664844679
20
18.348182733059964
10
122.94023664844673
20
18.252182733059922
0
LWPOLYLINE
5
197
100
AcDbEntity
8
0
100
AcDbPolyline
90
24
70
1
43
0.0
10
122.34023664844673
20
25.372182733059855
10
122.21593664844674
20
25.468182733059844
10
122.12063664844672
20
25.59218273305985
10
122.06073664844672
20
25.737182733059857
10
122.04023664844672
20
25.892182733059851
10
122.06073664844672
20
26.047182733059891
10
122.12063664844672
20
26.192182733059862
10
122.21593664844674
20
26.316182733059858
10
122.34023664844673
20
26.412182733059858
10
122.48493664844672
20
26.472182733059885
10
122.6402366484467
20
26.492182733059849
10
122.79553664844673
20
26.472182733059885
10
122.94023664844673
20
26.412182733059858
10
123.06453664844676
20
26.316182733059858
10
123.15983664844671
20
26.192182733059862
10
123.21983664844669
20
26.047182733059891
10
123.24023664844673
20
25.892182733059851
10
123.21983664844669
20
25.737182733059857
10
123.15983664844671
20
25.59218273305985
10
123.06453664844676
20
25.468182733059844
10
122.94023664844673
20
25.372182733059855
10
122.79553664844673
20
25.312182733059881
10
122.6402366484467
20
25.292182733059864
10
122.48493664844672
20
25.312182733059881
0
LWPOLYLINE
5
198
100
AcDbEntity
8
0
100
AcDbPolyline
90
24
70
1
43
0.0
10
112.51983664844678
20
21.2871827330599
10
112.45983664844681
20
21.142182733059901
10
112.36453664844686
20
21.018182733059895
10
112.24023664844682
20
20.922182733059898
10
112.09553664844682
20
20.862182733059896
10
111.94023664844684
20
20.842182733059897
10
111.78493664844686
20
20.862182733059896
10
111.64023664844686
20
20.922182733059898
10
111.51593664844685
20
21.018182733059895
10
111.42063664844684
20
21.142182733059901
10
111.36073664844685
20
21.2871827330599
10
111.34023664844685
20
21.442182733059859
10
111.36073664844685
20
21.59718273305986
10
111.42063664844683
20
21.742182733059888
10
111.51593664844684
20
21.866182733059883
10
111.64023664844684
20
21.96218273305989
10
111.78493664844683
20
22.022182733059875
10
111.94023664844681
20
22.042182733059853
10
112.0955366484468
20
22.022182733059875
10
112.24023664844681
20
21.96218273305989
10
112.36453664844683
20
21.866182733059901
10
112.4598366484468
20
21.742182733059888
10
112.51983664844678
20
21.597182733059878
10
112.54023664844681
20
21.442182733059884
0
LWPOLYLINE
5
199
100
AcDbEntity
8
0
100
AcDbPolyline
90
24
70
1
43
0.0
10
111.42063664844684
20
19.962182733059898
10
111.51593664844685
20
20.086182733059953
10
111.64023664844686
20
20.182182733059872
10
111.78493664844686
20
20.242182733059874
10
111.94023664844684
20
20.262182733059891
10
112.09553664844682
20
20.242182733059874
10
112.24023664844682
20
20.182182733059872
10
112.36453664844686
20
20.086182733059953
10
112.45983664844681
20
19.962182733059898
10
112.51983664844678
20
19.817182733059887
10
112.54023664844681
20
19.662182733059886
10
112.51983664844678
20
19.507182733059881
10
112.45983664844681
20
19.362182733059893
10
112.36453664844686
20
19.238182733059897
10
112.24023664844682
20
19.14218273305989
10
112.09553664844682
20
19.082182733059888
10
111.94023664844684
20
19.062182733059899
10
111.78493664844686
20
19.082182733059888
10
111.64023664844686
20
19.14218273305989
10
111.51593664844685
20
19.238182733059897
10
111.42063664844684
20
19.362182733059893
10
111.36073664844685
20
19.507182733059874
10
111.34023664844685
20
19.662182733059886
10
111.36073664844685
20
19.817182733059887
0
LWPOLYLINE
5
200
100
AcDbEntity
8
0
100
AcDbPolyline
90
24
70
1
43
0.0
10
111.42063664844684
20
18.182182733059889
10
111.51593664844685
20
18.306182733059902
10
111.64023664844686
20
18.402182733059917
10
111.78493664844686
20
18.462182733059894
10
111.94023664844684
20
18.482182733059854
10
112.09553664844682
20
18.462182733059894
10
112.24023664844682
20
18.402182733059917
10
112.36453664844686
20
18.306182733059902
10
112.45983664844681
20
18.182182733059896
10
112.51983664844678
20
18.03718273305989
10
112.54023664844681
20
17.882182733059885
10
112.51983664844678
20
17.727182733059891
10
112.45983664844681
20
17.58218273305992
10
112.36453664844686
20
17.458182733059925
10
112.24023664844682
20
17.362182733059917
10
112.09553664844682
20
17.302182733059905
10
111.94023664844684
20
17.282182733059908
10
111.78493664844686
20
17.302182733059905
10
111.64023664844686
20
17.362182733059917
10
111.51593664844685
20
17.458182733059907
10
111.42063664844684
20
17.582182733059891
10
111.36073664844685
20
17.727182733059873
10
111.34023664844685
20
17.882182733059885
10
111.36073664844685
20
18.03718273305989
0
LINE
5
201
100
AcDbEntity
8
0
100
AcDbLine
10
165.57527946009947
20
42.953409257706284
30
0
11
167.60892746585091
21
30.113460821392771
31
0
0
LINE
5
202
100
AcDbEntity
8
0
100
AcDbLine
10
172.61366399923764
20
31.156111494709002
30
0
11
170.58001594438505
21
43.996059986021187
31
0
0
LINE
5
203
100
AcDbEntity
8
0
100
AcDbLine
10
196.71328591986085
20
35.586637212554812
30
0
11
196.71328591986085
21
48.586637212554855
31
0
0
LINE
5
204
100
AcDbEntity
8
0
100
AcDbLine
10
66.867002079622438
20
30.455278657706486
30
0
11
68.900650079622437
21
43.295227057706434
31
0
0
LINE
5
205
100
AcDbEntity
8
0
100
AcDbLine
10
39.741285919861035
20
35.586637212554884
30
0
11
39.741285919861035
21
48.586637212554962
31
0
0
CIRCLE
5
206
100
AcDbEntity
8
0
100
AcDbCircle
10
99.905815999658387
20
128.9222339770285
30
0
40
1.25
210
0
220
0
230
1
0
CIRCLE
5
207
100
AcDbEntity
8
0
100
AcDbCircle
10
129.90661091933384
20
128.96222476603353
30
0
40
1.25
210
0
220
0
230
1
0
CIRCLE
5
208
100
AcDbEntity
8
0
100
AcDbCircle
10
134.96943019598572
20
17.004758174134299
30
0
40
1.2500000000000044
210
0
220
0
230
1
0
CIRCLE
5
209
100
AcDbEntity
8
0
100
AcDbCircle
10
95.95732644907747
20
17.035678311706544
30
0
40
1.2500000000000044
210
0
220
0
230
1
0
ENDSEC
0
SECTION
2
OBJECTS
0
DICTIONARY
5
C
100
AcDbDictionary
3
ACAD_GROUP
350
D
3
ACAD_MLINESTYLE
350
17
0
DICTIONARY
5
D
100
AcDbDictionary
0
DICTIONARY
5
1A
330
C
100
AcDbDictionary
0
DICTIONARY
5
17
100
AcDbDictionary
0
ENDSEC
0
EOF
